<svg width="120" height="120" viewBox="-35 0 120 120"
    xmlns="http://www.w3.org/2000/svg">
    <rect x="-35" y="0" width="100%" height="100%" fill="#000" />
    <g id="micro" stroke-linecap="round" fill-rule="nonzero" font-size="9pt" stroke="#e65773"
        stroke-width="2" fill="#e65773">
        <path
            d="M 13.9 97.3 L 0 97.3 L 0 24.3 L 15 24.3 L 15 57.8 Q 15 60.918 15.965 63.048 A 7.51 7.51 0 0 0 17.1 64.85 A 6.609 6.609 0 0 0 20.263 66.864 Q 21.33 67.191 22.617 67.273 A 13.926 13.926 0 0 0 23.5 67.3 Q 27.7 67.3 29.85 64.85 A 7.944 7.944 0 0 0 31.428 61.972 Q 31.804 60.791 31.932 59.363 A 17.388 17.388 0 0 0 32 57.8 L 32 24.3 L 47 24.3 L 47 57.9 Q 47 68.3 41.15 74.3 A 19.286 19.286 0 0 1 31.298 79.65 A 28.855 28.855 0 0 1 25 80.3 Q 21.022 80.3 18.099 79.128 A 12.969 12.969 0 0 1 17.35 78.8 A 17.558 17.558 0 0 1 14.852 77.363 Q 13.413 76.36 12.4 75.15 A 15.86 15.86 0 0 1 11.177 73.494 Q 10.606 72.597 10.256 71.729 A 8.424 8.424 0 0 1 10 71 L 9.1 71 A 0.055 0.055 0 0 1 9.133 71.026 Q 9.275 71.207 9.8 72.65 A 46.705 46.705 0 0 1 10.257 73.972 Q 10.523 74.778 10.798 75.694 A 85.902 85.902 0 0 1 11.05 76.55 Q 11.631 78.563 11.853 80.216 A 17.231 17.231 0 0 1 11.9 80.6 L 13.9 97.3 Z"
            id="0" />
    </g>
</svg>
