<svg width="400" height="140" viewBox="-25 -20 400 140"
    xmlns="http://www.w3.org/2000/svg">
    <rect x="-25" y="-20" width="100%" height="100%" fill="#000" />
    <g id="micro" stroke-linecap="round" fill-rule="nonzero" font-size="9pt" stroke="#e65773"
        stroke-width="2" fill="#e65773">
        <path
            d="M 13.9 97.3 L 0 97.3 L 0 24.3 L 15 24.3 L 15 57.8 Q 15 60.918 15.965 63.048 A 7.51 7.51 0 0 0 17.1 64.85 A 6.609 6.609 0 0 0 20.263 66.864 Q 21.33 67.191 22.617 67.273 A 13.926 13.926 0 0 0 23.5 67.3 Q 27.7 67.3 29.85 64.85 A 7.944 7.944 0 0 0 31.428 61.972 Q 31.804 60.791 31.932 59.363 A 17.388 17.388 0 0 0 32 57.8 L 32 24.3 L 47 24.3 L 47 57.9 Q 47 68.3 41.15 74.3 A 19.286 19.286 0 0 1 31.298 79.65 A 28.855 28.855 0 0 1 25 80.3 Q 21.022 80.3 18.099 79.128 A 12.969 12.969 0 0 1 17.35 78.8 A 17.558 17.558 0 0 1 14.852 77.363 Q 13.413 76.36 12.4 75.15 A 15.86 15.86 0 0 1 11.177 73.494 Q 10.606 72.597 10.256 71.729 A 8.424 8.424 0 0 1 10 71 L 9.1 71 A 0.055 0.055 0 0 1 9.133 71.026 Q 9.275 71.207 9.8 72.65 A 46.705 46.705 0 0 1 10.257 73.972 Q 10.523 74.778 10.798 75.694 A 85.902 85.902 0 0 1 11.05 76.55 Q 11.631 78.563 11.853 80.216 A 17.231 17.231 0 0 1 11.9 80.6 L 13.9 97.3 Z"
            id="0" />
    </g>
    <g id="rest" stroke-linecap="round" fill-rule="nonzero" font-size="9pt" stroke="#ffffff"
        stroke-width="2" fill="#ffffff">
        <path
            d="M 110 79.3 L 92.5 79.3 Q 86.7 79.3 82.3 76.85 Q 77.9 74.4 75.45 70 Q 73 65.6 73 59.8 L 73 19.8 L 56 19.8 L 56 6.3 L 88 6.3 L 88 59.8 A 7.174 7.174 0 0 0 88.252 61.749 A 5.409 5.409 0 0 0 89.65 64.15 A 5.538 5.538 0 0 0 92.792 65.71 A 7.756 7.756 0 0 0 94 65.8 L 110 65.8 L 110 79.3 Z"
            id="1" />
        <path
            d="M 169.5 79.3 L 120.5 79.3 L 120.5 65.7 L 139.5 65.7 L 139.5 37.8 L 123 37.8 L 123 24.3 L 153.5 24.3 L 153.5 65.7 L 169.5 65.7 L 169.5 79.3 Z M 145.5 15.6 Q 141.4 15.6 138.95 13.5 A 6.887 6.887 0 0 1 136.548 8.783 A 9.716 9.716 0 0 1 136.5 7.8 A 8.517 8.517 0 0 1 136.866 5.24 A 6.711 6.711 0 0 1 138.95 2.1 A 8.381 8.381 0 0 1 142.44 0.347 Q 143.834 0 145.5 0 Q 149.6 0 152.05 2.1 A 6.887 6.887 0 0 1 154.452 6.817 A 9.716 9.716 0 0 1 154.5 7.8 A 8.517 8.517 0 0 1 154.134 10.36 A 6.711 6.711 0 0 1 152.05 13.5 A 8.381 8.381 0 0 1 148.56 15.254 Q 147.166 15.6 145.5 15.6 Z"
            id="2" />
        <path
            d="M 204 97.3 L 188 97.3 L 188 85.3 L 203.5 85.3 A 13.45 13.45 0 0 0 206.018 85.08 Q 207.448 84.807 208.564 84.197 A 6.794 6.794 0 0 0 209.95 83.2 A 6.902 6.902 0 0 0 212.012 79.406 A 10.176 10.176 0 0 0 212.2 77.4 L 212.2 75.3 L 212.4 64.8 L 208.9 64.8 L 212.4 61.3 A 20.758 20.758 0 0 1 211.944 65.786 Q 211.067 69.75 208.5 72.35 A 12.896 12.896 0 0 1 201.95 75.875 A 19.169 19.169 0 0 1 197.8 76.3 A 19.226 19.226 0 0 1 191.601 75.343 A 16.044 16.044 0 0 1 184.5 70.5 Q 179.836 65.09 179.523 56.111 A 37.609 37.609 0 0 1 179.5 54.8 L 179.5 44.8 A 31.161 31.161 0 0 1 180.146 38.267 Q 181.045 34.072 183.197 30.867 A 18.587 18.587 0 0 1 184.5 29.15 A 16.359 16.359 0 0 1 196.492 23.338 A 22.476 22.476 0 0 1 197.8 23.3 A 18.853 18.853 0 0 1 202.29 23.805 A 12.81 12.81 0 0 1 208.5 27.25 Q 212.209 31.006 212.391 37.611 A 25.023 25.023 0 0 1 212.4 38.3 L 208.9 34.8 L 212.4 34.8 L 211.9 24.3 L 226.9 24.3 L 226.9 77.9 A 21.18 21.18 0 0 1 225.999 84.234 A 16.591 16.591 0 0 1 220.75 92.1 Q 215.166 96.822 205.914 97.256 A 40.793 40.793 0 0 1 204 97.3 Z M 211.9 54.3 L 211.9 45.3 Q 211.9 41.993 210.54 39.84 A 7.168 7.168 0 0 0 209.6 38.65 A 7.556 7.556 0 0 0 205.86 36.591 Q 204.651 36.303 203.223 36.3 A 14.384 14.384 0 0 0 203.2 36.3 A 12.031 12.031 0 0 0 200.654 36.553 Q 199.009 36.91 197.781 37.767 A 6.862 6.862 0 0 0 196.75 38.65 A 7.669 7.669 0 0 0 194.931 41.911 Q 194.587 43.113 194.518 44.551 A 15.476 15.476 0 0 0 194.5 45.3 L 194.5 54.3 Q 194.5 57.562 195.795 59.702 A 7.154 7.154 0 0 0 196.75 60.95 A 7.27 7.27 0 0 0 200.163 62.927 Q 201.335 63.248 202.735 63.293 A 14.44 14.44 0 0 0 203.2 63.3 Q 207.006 63.3 209.261 61.276 A 7.292 7.292 0 0 0 209.6 60.95 A 7.662 7.662 0 0 0 211.491 57.581 Q 211.9 56.114 211.9 54.3 Z"
            id="3" />
        <path
            d="M 255.1 79.3 L 240.1 79.3 L 240.1 6.3 L 255.1 6.3 L 255.1 24.3 L 254.6 34.8 L 259 34.8 L 254.6 38.3 A 19.757 19.757 0 0 1 255.094 33.749 A 13.205 13.205 0 0 1 258.6 27.3 A 13.338 13.338 0 0 1 265.609 23.653 A 19.415 19.415 0 0 1 269.4 23.3 Q 277.4 23.3 282.25 28.9 A 19.164 19.164 0 0 1 286.36 37.099 Q 287.054 39.976 287.097 43.348 A 35.151 35.151 0 0 1 287.1 43.8 L 287.1 79.3 L 272.1 79.3 L 272.1 45.3 Q 272.1 42.039 270.805 39.899 A 7.154 7.154 0 0 0 269.85 38.65 Q 267.651 36.354 263.685 36.302 A 14.087 14.087 0 0 0 263.5 36.3 A 10.912 10.912 0 0 0 260.963 36.578 A 7.168 7.168 0 0 0 257.3 38.65 Q 255.1 41 255.1 45.3 L 255.1 79.3 Z"
            id="4" />
        <path
            d="M 346 79.3 L 329.5 79.3 A 23.708 23.708 0 0 1 324.039 78.707 A 15.846 15.846 0 0 1 316.3 74.5 A 15.877 15.877 0 0 1 312.067 66.65 A 23.814 23.814 0 0 1 311.5 61.3 L 311.5 37.8 L 297 37.8 L 297 24.3 L 311.5 24.3 L 311.5 8.8 L 326.5 8.8 L 326.5 24.3 L 347 24.3 L 347 37.8 L 326.5 37.8 L 326.5 61.3 Q 326.5 64.871 329.334 65.608 A 6.63 6.63 0 0 0 331 65.8 L 346 65.8 L 346 79.3 Z"
            id="5" />
    </g>
</svg>
